<?xml version="1.0" encoding="utf-8"?>
<!-- Generator: Adobe Illustrator 22.0.0, SVG Export Plug-In . SVG Version: 6.00 Build 0)  -->
<svg version="1.1" id="Layer_1" xmlns="http://www.w3.org/2000/svg" xmlns:xlink="http://www.w3.org/1999/xlink" x="0px" y="0px"
	 viewBox="0 0 256 41.8" style="enable-background:new 0 0 256 41.8;" xml:space="preserve">
<style type="text/css">
	.st0{fill:#FFFFFF;}
</style>
<g>
	<path class="st0" d="M36.1,3.5v34.7c0,0.6-0.4,1-1,1h-5.7c-0.6,0-1-0.4-1-1V25c0-0.6-0.6-1.1-1.2-0.9L9.1,28.4
		c-0.4,0.1-0.7,0.5-0.7,1v8.8c0,0.6-0.4,1-1,1H1.7c-0.6,0-1-0.4-1-1V3.5c0-0.5,0.4-1,1-1h5.8c0.6,0,1,0.5,1,1v15.6
		c0,0.6,0.6,1.1,1.2,0.9l18.2-4.3c0.4-0.1,0.7-0.5,0.7-0.9V3.5c0-0.5,0.4-1,1-1h5.7C35.7,2.6,36.1,3,36.1,3.5z"/>
	<path class="st0" d="M41.6,39.2c-1.1,0-2-0.9-2-1.9V4.5c0-1.1,0.9-2,2-2h3.7c1.1,0,1.9,0.9,1.9,2v32.7c0,1.1-0.9,1.9-1.9,1.9H41.6z
		"/>
	<path class="st0" d="M66.4,39.3c-1.1,0-1.9-0.9-1.9-1.9V12.2c0-1.1-0.9-2-2-2h-9.7c-1.1,0-2-0.9-2-1.9V4.6c0-1.1,0.9-2,2-2h30.9
		c1.1,0,2,0.9,2,2v3.7c0,1.1-0.9,1.9-2,1.9H74c-1.1,0-2,0.9-2,2v25.1c0,1.1-0.9,1.9-1.9,1.9H66.4z"/>
	<path class="st0" d="M125.8,12.5c0.1,2-0.2,4.4-3.6,6.7c-0.1,0.1-0.1,0.1-0.2,0.1l-12.9,7.2c-0.9,0.5-2,0.3-2.5-0.6l-1.9-2.7
		c-0.6-0.9-0.4-2.2,0.7-2.8l11.8-6.6c0.6-0.4,1-1,1-1.7c0-1.1-0.9-2-2-2H98.8c-1.1,0-2,0.9-2,2V30c0,1.1,0.9,1.9,2,1.9h22
		c1.1,0,2,0.9,2,2v3.3c0,1.1-0.9,1.9-2,1.9H95.8c-3.7,0-6.7-3-6.7-6.7V9.3c0-3.6,2.9-6.7,6.5-6.7c0.1,0,0.1,0,0.2,0h23.3
		c0.1,0,0.1,0,0.2,0c3.6,0.1,6.5,3.1,6.5,6.7V12.5z"/>
	<path class="st0" d="M135.9,39.3c-3.6-0.1-6.6-2.8-6.6-6v-3.8c0-0.4,0.4-0.7,0.7-0.7h6.3c0.4,0,0.7,0.3,0.7,0.7v1.5
		c0,0.4,0.4,0.7,0.7,0.7h20c0.4,0,0.7-0.3,0.7-0.7c0-0.3-0.2-0.5-0.4-0.6l-25-11.8c-3.4-2-3.6-4.2-3.6-6.1V8.7c0-3.3,3-6,6.6-6.1
		l7.8-0.1c5.1,0,10.4,0.1,15.6,0.1c3.7,0,6.7,2.7,6.7,6.1v3.8c0,0.4-0.3,0.7-0.7,0.7H159c-0.4,0-0.7-0.4-0.7-0.7v-1.6
		c0-0.4-0.3-0.7-0.7-0.7h-20c-0.6,0-0.7,0.5-0.7,1c0,0.3,0.2,0.5,0.4,0.7l25,11.8c3.2,1.9,3.6,3.9,3.6,5.7v3.9c0,3.2-2.9,5.9-6.5,6
		H135.9z"/>
	<path class="st0" d="M204.9,3.5v34.7c0,0.6-0.4,1-1,1h-5.7c-0.6,0-1-0.4-1-1V25c0-0.6-0.6-1.1-1.2-0.9l-18.2,4.3
		c-0.4,0.1-0.7,0.5-0.7,1v8.8c0,0.6-0.4,1-1,1h-5.8c-0.6,0-1-0.4-1-1V3.5c0-0.5,0.4-1,1-1h5.8c0.6,0,1,0.5,1,1v15.6
		c0,0.6,0.6,1.1,1.2,0.9l18.2-4.3c0.4-0.1,0.7-0.5,0.7-0.9V3.5c0-0.5,0.4-1,1-1h5.7C204.5,2.6,204.9,3,204.9,3.5z"/>
	<path class="st0" d="M215.1,35.1v3.5c0,0.4-0.4,0.7-0.7,0.7h-5.3c-0.4,0-0.7-0.3-0.7-0.7v-3.5c0-0.4,0.3-0.7,0.7-0.7h5.3
		C214.8,34.4,215.1,34.7,215.1,35.1z"/>
	<path class="st0" d="M255.2,28.7v3.8c0,2.4-1.4,4.6-3.3,5.8c-0.4,0.6-1,0.9-1.7,0.9h-1.7h-23.3c0,0-0.1,0-0.2,0s-0.1,0-0.2,0
		c-0.1,0-0.2,0-0.2,0s-0.1,0-0.2,0c-0.1,0-0.1,0-0.2,0c-0.1,0-0.2,0-0.2,0c-0.1,0-0.1-0.1-0.2-0.1c0,0-0.1,0-0.2,0
		c0-0.1-0.1-0.1-0.2-0.1c-0.1,0-0.2-0.1-0.2-0.1s-0.1,0-0.2,0s-0.1,0-0.2-0.1c-0.1,0-0.1,0-0.2-0.1c-0.3-0.1-0.5-0.2-0.8-0.3
		c0,0-0.1-0.1-0.2-0.1c0-0.1-0.1-0.1-0.2-0.1c-0.1,0-0.1-0.1-0.1-0.1c-0.5-0.3-0.9-0.6-1.3-1c-0.1-0.1-0.2-0.2-0.2-0.2
		c-0.1-0.1-0.2-0.2-0.3-0.3c0,0-0.1-0.1-0.1-0.1c0-0.1,0-0.1-0.1-0.2c0-0.1-0.1-0.1-0.1-0.1c0,0,0-0.1-0.1-0.2
		c0-0.1-0.1-0.1-0.1-0.2c0,0-0.1-0.1-0.1-0.1c-0.1,0-0.1-0.1-0.1-0.2c0,0,0-0.1,0-0.2c-0.1-0.1-0.1-0.1-0.1-0.1
		c0-0.1-0.1-0.1-0.1-0.2c0,0,0-0.1-0.1-0.2c0-0.1-0.1-0.1-0.1-0.2c-0.1-0.1-0.1-0.1-0.1-0.2c0-0.1,0-0.1-0.1-0.2
		c0-0.1-0.1-0.1-0.1-0.2c0,0,0-0.1,0-0.2c0-0.1-0.1-0.1-0.1-0.2c0-0.1-0.1-0.1-0.1-0.2c0-0.1-0.1-0.1-0.1-0.2c0-0.1,0-0.1,0-0.2
		c0-0.1,0-0.1,0-0.2c0,0-0.1-0.1-0.1-0.2c0-0.1,0-0.1,0-0.2c-0.1-0.1-0.1-0.1-0.1-0.2c0-0.1,0-0.2,0-0.2c0-0.1,0-0.1-0.1-0.2
		c0-0.1,0-0.1,0-0.2c0,0,0-0.2,0-0.2c0-0.1,0-0.1,0-0.2v-0.4v-0.4v-0.4V31v-0.4v-0.4V30v-0.4v-0.4v-0.4v-0.4v-0.4v-0.4v-0.4V27v-0.4
		v-0.4v-0.4v-0.1V9.3c0-3.6,3-6.7,6.7-6.7h24.9c1.1,0,2,0.9,2,2v3.3c0,1.1-0.9,1.9-2,1.9h-22c-1.1,0-2,0.9-2,2c0,6.1,0,12.2,0,18.3
		c0,0.2,0.1,0.3,0.1,0.5c0.4,0.7,1,1.1,1.8,1.1h17.6c1.1,0,2-0.9,2-1.9v-0.5c0-0.7-0.4-1.4-1-1.7l-11.8-6.6c-1-0.6-1.3-1.9-0.7-2.8
		l1.9-2.7c0.6-0.9,1.7-1.1,2.5-0.6l12.9,7.3c0.1,0,0.1,0.1,0.1,0.1C255.1,24.2,255.3,26.6,255.2,28.7z"/>
</g>
</svg>
