<?xml version="1.0" encoding="utf-8"?>
<!-- Generator: Adobe Illustrator 22.0.0, SVG Export Plug-In . SVG Version: 6.00 Build 0)  -->
<svg version="1.1" id="Layer_1" xmlns="http://www.w3.org/2000/svg" xmlns:xlink="http://www.w3.org/1999/xlink" x="0px" y="0px"
	 viewBox="0 0 200 200" style="enable-background:new 0 0 200 200;" xml:space="preserve">
<style type="text/css">
	.st0{fill:#606060;}
	.st1{fill:#FFFFFF;}
</style>
<circle class="st0" cx="100" cy="100" r="97.9"/>
<g>
	<path class="st1" d="M86.8,68.8V131c0,1.1-0.7,1.8-1.8,1.8H74.8c-1.1,0-1.8-0.7-1.8-1.8v-23.7c0-1.1-1.1-2-2.2-1.6l-32.6,7.7
		c-0.7,0.2-1.3,0.9-1.3,1.8V131c0,1.1-0.7,1.8-1.8,1.8H24.8c-1.1,0-1.8-0.7-1.8-1.8V68.8c0-0.9,0.7-1.8,1.8-1.8h10.4
		c1.1,0,1.8,0.9,1.8,1.8v28c0,1.1,1.1,2,2.2,1.6l32.6-7.7c0.7-0.2,1.3-0.9,1.3-1.6V68.8c0-0.9,0.7-1.8,1.8-1.8H85
		C86.1,67.2,86.8,67.9,86.8,68.8z"/>
	<path class="st1" d="M105.1,125.5v6.3c0,0.7-0.7,1.3-1.3,1.3h-9.5c-0.7,0-1.3-0.5-1.3-1.3v-6.3c0-0.7,0.5-1.3,1.3-1.3h9.5
		C104.6,124.2,105.1,124.7,105.1,125.5z"/>
	<path class="st1" d="M177,114v6.8c0,4.3-2.5,8.2-5.9,10.4c-0.7,1.1-1.8,1.6-3,1.6h-3h-41.8c0,0-0.2,0-0.4,0c-0.2,0-0.2,0-0.4,0
		c-0.2,0-0.4,0-0.4,0s-0.2,0-0.4,0c-0.2,0-0.2,0-0.4,0c-0.2,0-0.4,0-0.4,0c-0.2,0-0.2-0.2-0.4-0.2c0,0-0.2,0-0.4,0
		c0-0.2-0.2-0.2-0.4-0.2c-0.2,0-0.4-0.2-0.4-0.2s-0.2,0-0.4,0c-0.2,0-0.2,0-0.4-0.2c-0.2,0-0.2,0-0.4-0.2c-0.5-0.2-0.9-0.4-1.4-0.5
		c0,0-0.2-0.2-0.4-0.2c0-0.2-0.2-0.2-0.4-0.2c-0.2,0-0.2-0.2-0.2-0.2c-0.9-0.5-1.6-1.1-2.3-1.8c-0.2-0.2-0.4-0.4-0.4-0.4
		c-0.2-0.2-0.4-0.4-0.5-0.5l-0.2-0.2c0-0.2,0-0.2-0.2-0.4c0-0.2-0.2-0.2-0.2-0.2s0-0.2-0.2-0.4c0-0.2-0.2-0.2-0.2-0.4l-0.2-0.2
		c-0.2,0-0.2-0.2-0.2-0.4c0,0,0-0.2,0-0.4c-0.2-0.2-0.2-0.2-0.2-0.2c0-0.2-0.2-0.2-0.2-0.4c0,0,0-0.2-0.2-0.4c0-0.2-0.2-0.2-0.2-0.4
		c-0.2-0.2-0.2-0.2-0.2-0.4c0-0.2,0-0.2-0.2-0.4c0-0.2-0.2-0.2-0.2-0.4c0,0,0-0.2,0-0.4c0-0.2-0.2-0.2-0.2-0.4s-0.2-0.2-0.2-0.4
		c0-0.2-0.2-0.2-0.2-0.4c0-0.2,0-0.2,0-0.4s0-0.2,0-0.4c0,0-0.2-0.2-0.2-0.4s0-0.2,0-0.4c-0.2-0.2-0.2-0.2-0.2-0.4
		c0-0.2,0-0.4,0-0.4c0-0.2,0-0.2-0.2-0.4c0-0.2,0-0.2,0-0.4v-0.4c0-0.2,0-0.2,0-0.4v-0.7V117v-0.7v1.8v-0.7v-0.7v-0.4v-0.7v-0.7
		v-0.7v-0.7v-0.7V112v-0.7v-0.4v-0.7v-0.7v-0.7v-0.2V79.2c0-6.5,5.4-12,12-12H166c2,0,3.6,1.6,3.6,3.6v5.9c0,2-1.6,3.4-3.6,3.4
		h-39.4c-2,0-3.6,1.6-3.6,3.6c0,10.9,0,21.9,0,32.8c0,0.4,0.2,0.5,0.2,0.9c0.7,1.3,1.8,2,3.2,2H158c2,0,3.6-1.6,3.6-3.4v-0.9
		c0-1.3-0.7-2.5-1.8-3l-21.2-11.8c-1.8-1.1-2.3-3.4-1.3-5l3.4-4.8c1.1-1.6,3-2,4.5-1.1l23.1,13.1c0.2,0,0.2,0.2,0.2,0.2
		C176.8,105.9,177.1,110.2,177,114z"/>
</g>
</svg>
